<svg xmlns="http://www.w3.org/2000/svg" viewBox="0 0 860 490" width="860" height="490" role="img" aria-label="website grid mockup">
  <defs>
    <filter id="shadow" x="-20%" y="-20%" width="140%" height="140%">
      <feDropShadow dx="0" dy="10" stdDeviation="14" flood-opacity="0.14"/>
    </filter>
    <pattern id="dots" width="22" height="22" patternUnits="userSpaceOnUse">
      <circle cx="2" cy="2" r="1.2" fill="#000" opacity="0.16"/>
    </pattern>
  </defs>
  <rect x="0" y="0" width="860" height="490" rx="0" fill="#eeeeee" opacity="1" stroke="none" stroke-width="0"/>
  <rect x="0" y="0" width="860" height="490" rx="0" fill="#eeeeee" opacity="1" stroke="none" stroke-width="0"/>
  <text x="50" y="50" font-family="Arial, Helvetica, sans-serif" font-size="12" font-weight="700" fill="#191919" text-anchor="start" opacity="1">Emma Normand</text>
  <text x="135" y="50" font-family="Arial, Helvetica, sans-serif" font-size="11" font-weight="500" fill="#333" text-anchor="start" opacity="1">Photographer</text>
  <text x="802" y="50" font-family="Arial, Helvetica, sans-serif" font-size="22" font-weight="700" fill="#333" text-anchor="start" opacity="1">≡</text>
  <rect x="86" y="100" width="130" height="95" rx="2" fill="#d0d2cf" opacity="1" stroke="none" stroke-width="0"/>
  <line x1="96" y1="180" x2="206" y2="110" stroke="#ffffff" stroke-width="5" opacity="0.22"/>
  <circle cx="177.0" cy="130.4" r="18" fill="#fff" opacity="0.28"/>
  <rect x="285" y="84" width="150" height="200" rx="2" fill="#202020" opacity="1" stroke="none" stroke-width="0"/>
  <line x1="295" y1="269" x2="425" y2="94" stroke="#ffffff" stroke-width="5" opacity="0.22"/>
  <circle cx="390.0" cy="148.0" r="18" fill="#fff" opacity="0.28"/>
  <rect x="470" y="108" width="125" height="160" rx="2" fill="#f0d337" opacity="1" stroke="none" stroke-width="0"/>
  <line x1="480" y1="253" x2="585" y2="118" stroke="#ffffff" stroke-width="5" opacity="0.22"/>
  <circle cx="557.5" cy="159.2" r="18" fill="#fff" opacity="0.28"/>
  <rect x="650" y="96" width="150" height="116" rx="2" fill="#050505" opacity="1" stroke="none" stroke-width="0"/>
  <line x1="660" y1="197" x2="790" y2="106" stroke="#ffffff" stroke-width="5" opacity="0.22"/>
  <circle cx="755.0" cy="133.12" r="18" fill="#fff" opacity="0.28"/>
  <rect x="82" y="320" width="150" height="102" rx="2" fill="#b9bbb6" opacity="1" stroke="none" stroke-width="0"/>
  <line x1="92" y1="407" x2="222" y2="330" stroke="#ffffff" stroke-width="5" opacity="0.22"/>
  <circle cx="187.0" cy="352.64" r="18" fill="#fff" opacity="0.28"/>
  <rect x="350" y="330" width="130" height="115" rx="2" fill="#f4f4f4" opacity="1" stroke="none" stroke-width="0"/>
  <line x1="360" y1="430" x2="470" y2="340" stroke="#ffffff" stroke-width="5" opacity="0.22"/>
  <circle cx="441.0" cy="366.8" r="18" fill="#fff" opacity="0.28"/>
  <rect x="545" y="308" width="120" height="140" rx="2" fill="#1b1716" opacity="1" stroke="none" stroke-width="0"/>
  <line x1="555" y1="433" x2="655" y2="318" stroke="#ffffff" stroke-width="5" opacity="0.22"/>
  <circle cx="629.0" cy="352.8" r="18" fill="#fff" opacity="0.28"/>
  <line x1="50" y1="70" x2="50" y2="455" stroke="#bbb" stroke-width="1" opacity="0.18"/>
  <line x1="136" y1="70" x2="136" y2="455" stroke="#bbb" stroke-width="1" opacity="0.18"/>
  <line x1="222" y1="70" x2="222" y2="455" stroke="#bbb" stroke-width="1" opacity="0.18"/>
  <line x1="308" y1="70" x2="308" y2="455" stroke="#bbb" stroke-width="1" opacity="0.18"/>
  <line x1="394" y1="70" x2="394" y2="455" stroke="#bbb" stroke-width="1" opacity="0.18"/>
  <line x1="480" y1="70" x2="480" y2="455" stroke="#bbb" stroke-width="1" opacity="0.18"/>
  <line x1="566" y1="70" x2="566" y2="455" stroke="#bbb" stroke-width="1" opacity="0.18"/>
  <line x1="652" y1="70" x2="652" y2="455" stroke="#bbb" stroke-width="1" opacity="0.18"/>
  <line x1="738" y1="70" x2="738" y2="455" stroke="#bbb" stroke-width="1" opacity="0.18"/>
</svg>