<svg xmlns="http://www.w3.org/2000/svg" viewBox="0 0 860 490" width="860" height="490" role="img" aria-label="website grid mockup">
  <defs>
    <filter id="shadow" x="-20%" y="-20%" width="140%" height="140%">
      <feDropShadow dx="0" dy="10" stdDeviation="14" flood-opacity="0.14"/>
    </filter>
    <pattern id="dots" width="22" height="22" patternUnits="userSpaceOnUse">
      <circle cx="2" cy="2" r="1.2" fill="#000" opacity="0.16"/>
    </pattern>
  </defs>
  <rect x="0" y="0" width="860" height="490" rx="0" fill="#111614" opacity="1" stroke="none" stroke-width="0"/>
  <rect x="0" y="0" width="860" height="490" rx="0" fill="#111614" opacity="1" stroke="none" stroke-width="0"/>
  <circle cx="225" cy="180" r="72" fill="#e8dad6" opacity="0.72"/>
  <circle cx="205" cy="192" r="39.6" fill="#fff" opacity="0.18"/>
  <circle cx="243" cy="164" r="25.2" fill="#6f2d36" opacity="0.26"/>
  <circle cx="300" cy="128" r="58" fill="#d09aa4" opacity="0.72"/>
  <circle cx="280" cy="140" r="31.900000000000002" fill="#fff" opacity="0.18"/>
  <circle cx="318" cy="112" r="20.299999999999997" fill="#6f2d36" opacity="0.26"/>
  <circle cx="380" cy="210" r="82" fill="#f0efea" opacity="0.72"/>
  <circle cx="360" cy="222" r="45.1" fill="#fff" opacity="0.18"/>
  <circle cx="398" cy="194" r="28.7" fill="#6f2d36" opacity="0.26"/>
  <circle cx="490" cy="140" r="66" fill="#c48486" opacity="0.72"/>
  <circle cx="470" cy="152" r="36.300000000000004" fill="#fff" opacity="0.18"/>
  <circle cx="508" cy="124" r="23.099999999999998" fill="#6f2d36" opacity="0.26"/>
  <circle cx="575" cy="230" r="82" fill="#f0e0dd" opacity="0.72"/>
  <circle cx="555" cy="242" r="45.1" fill="#fff" opacity="0.18"/>
  <circle cx="593" cy="214" r="28.7" fill="#6f2d36" opacity="0.26"/>
  <circle cx="665" cy="150" r="60" fill="#c99b95" opacity="0.72"/>
  <circle cx="645" cy="162" r="33.0" fill="#fff" opacity="0.18"/>
  <circle cx="683" cy="134" r="21.0" fill="#6f2d36" opacity="0.26"/>
  <line x1="140" y1="340" x2="210" y2="95" stroke="#52695d" stroke-width="4" opacity="0.55"/>
  <line x1="220" y1="340" x2="290" y2="95" stroke="#52695d" stroke-width="4" opacity="0.55"/>
  <line x1="300" y1="340" x2="370" y2="95" stroke="#52695d" stroke-width="4" opacity="0.55"/>
  <line x1="380" y1="340" x2="450" y2="95" stroke="#52695d" stroke-width="4" opacity="0.55"/>
  <line x1="460" y1="340" x2="530" y2="95" stroke="#52695d" stroke-width="4" opacity="0.55"/>
  <line x1="540" y1="340" x2="610" y2="95" stroke="#52695d" stroke-width="4" opacity="0.55"/>
  <line x1="620" y1="340" x2="690" y2="95" stroke="#52695d" stroke-width="4" opacity="0.55"/>
  <line x1="700" y1="340" x2="770" y2="95" stroke="#52695d" stroke-width="4" opacity="0.55"/>
  <text x="430" y="250" font-family="Arial" font-size="30" font-weight="800" fill="#fff" text-anchor="middle" opacity="1">Flowers in a Wan-Li Vase</text>
  <text x="430" y="286" font-family="Arial" font-size="20" font-weight="600" fill="#fff" text-anchor="middle" opacity="1">collection grid · c. 1610–1615</text>
  <rect x="0" y="0" width="860" height="490" rx="0" fill="#000" opacity="0.25" stroke="none" stroke-width="0"/>
</svg>