<svg xmlns="http://www.w3.org/2000/svg" viewBox="0 0 860 490" width="860" height="490" role="img" aria-label="website grid mockup">
  <defs>
    <filter id="shadow" x="-20%" y="-20%" width="140%" height="140%">
      <feDropShadow dx="0" dy="10" stdDeviation="14" flood-opacity="0.14"/>
    </filter>
    <pattern id="dots" width="22" height="22" patternUnits="userSpaceOnUse">
      <circle cx="2" cy="2" r="1.2" fill="#000" opacity="0.16"/>
    </pattern>
  </defs>
  <rect x="0" y="0" width="860" height="490" rx="0" fill="#f4bf28" opacity="1" stroke="none" stroke-width="0"/>
  <rect x="0" y="0" width="860" height="72" rx="0" fill="#e1a10e" opacity="1" stroke="none" stroke-width="0"/>
  <rect x="0" y="72" width="860" height="418" rx="0" fill="#f4bf28" opacity="1" stroke="none" stroke-width="0"/>
  <text x="36" y="38" font-family="Arial, Helvetica, sans-serif" font-size="14" font-weight="700" fill="#362500" text-anchor="start" opacity="1">CREATIVEGRID</text>
  <text x="520" y="38" font-family="Arial, Helvetica, sans-serif" font-size="12" font-weight="700" fill="#362500" text-anchor="start" opacity="1">INFO   WORK   PLAY   CONTACT</text>
  <text x="42" y="132" font-family="Arial, Helvetica, sans-serif" font-size="20" font-weight="700" fill="#2b2108" text-anchor="start" opacity="1">A bold portfolio layout built with cards, rhythm, and warm editorial grids.</text>
  <rect x="42" y="172" width="156" height="210" rx="0" fill="#f7d23c" opacity="1" stroke="none" stroke-width="0"/>
  <rect x="54" y="186" width="132" height="150" rx="0" fill="#e74b3f" opacity="0.95" stroke="none" stroke-width="0"/>
  <circle cx="120" cy="260" r="48" fill="#111" opacity="0.12"/>
  <line x1="70" y1="330" x2="174" y2="205" stroke="#111" stroke-width="8" opacity="0.25"/>
  <text x="54" y="410" font-family="Arial, Helvetica, sans-serif" font-size="15" font-weight="800" fill="#362500" text-anchor="start" opacity="1">POSTER</text>
  <text x="54" y="432" font-family="Arial, Helvetica, sans-serif" font-size="10" font-weight="600" fill="#362500" text-anchor="start" opacity="1">GRID SAMPLE</text>
  <rect x="232" y="172" width="156" height="210" rx="0" fill="#f7d23c" opacity="1" stroke="none" stroke-width="0"/>
  <rect x="244" y="186" width="132" height="150" rx="0" fill="#2456a6" opacity="0.95" stroke="none" stroke-width="0"/>
  <circle cx="310" cy="260" r="48" fill="#111" opacity="0.12"/>
  <line x1="260" y1="330" x2="364" y2="205" stroke="#111" stroke-width="8" opacity="0.25"/>
  <text x="244" y="410" font-family="Arial, Helvetica, sans-serif" font-size="15" font-weight="800" fill="#362500" text-anchor="start" opacity="1">CIRCLE</text>
  <text x="244" y="432" font-family="Arial, Helvetica, sans-serif" font-size="10" font-weight="600" fill="#362500" text-anchor="start" opacity="1">GRID SAMPLE</text>
  <rect x="422" y="172" width="156" height="210" rx="0" fill="#f7d23c" opacity="1" stroke="none" stroke-width="0"/>
  <rect x="434" y="186" width="132" height="150" rx="0" fill="#46c8a2" opacity="0.95" stroke="none" stroke-width="0"/>
  <circle cx="500" cy="260" r="48" fill="#111" opacity="0.12"/>
  <line x1="450" y1="330" x2="554" y2="205" stroke="#111" stroke-width="8" opacity="0.25"/>
  <text x="434" y="410" font-family="Arial, Helvetica, sans-serif" font-size="15" font-weight="800" fill="#362500" text-anchor="start" opacity="1">STOCK TILES</text>
  <text x="434" y="432" font-family="Arial, Helvetica, sans-serif" font-size="10" font-weight="600" fill="#362500" text-anchor="start" opacity="1">GRID SAMPLE</text>
  <rect x="612" y="172" width="156" height="210" rx="0" fill="#f7d23c" opacity="1" stroke="none" stroke-width="0"/>
  <rect x="624" y="186" width="132" height="150" rx="0" fill="#d76b35" opacity="0.95" stroke="none" stroke-width="0"/>
  <circle cx="690" cy="260" r="48" fill="#111" opacity="0.12"/>
  <line x1="640" y1="330" x2="744" y2="205" stroke="#111" stroke-width="8" opacity="0.25"/>
  <text x="624" y="410" font-family="Arial, Helvetica, sans-serif" font-size="15" font-weight="800" fill="#362500" text-anchor="start" opacity="1">ARTICLE</text>
  <text x="624" y="432" font-family="Arial, Helvetica, sans-serif" font-size="10" font-weight="600" fill="#362500" text-anchor="start" opacity="1">GRID SAMPLE</text>
  <line x1="0" y1="450" x2="860" y2="450" stroke="#8e4e0a" stroke-width="6" opacity="0.4"/>
  <line x1="0" y1="468" x2="860" y2="468" stroke="#8e4e0a" stroke-width="6" opacity="0.4"/>
</svg>